<?xml version="1.0" encoding="UTF-8" standalone="no"?>
<!-- Created by Symbolator http://kevinpt.github.io/symbolator -->
<svg xmlns="http://www.w3.org/2000/svg"
xmlns:xlink="http://www.w3.org/1999/xlink"
xml:space="preserve"
width="191" height="395" viewBox="-25 -56 191.0 395.0" version="1.1">
<style type="text/css">
<![CDATA[
.fnt1 { fill:#000000; font-family:Times; font-size:12pt; font-weight:normal; font-style:italic; }
.fnt2 { fill:#000000; font-family:Helvetica; font-size:12pt; font-weight:normal; font-style:normal; }
.fnt3 { fill:#000000; font-family:Helvetica; font-size:12pt; font-weight:normal; font-style:normal; text-decoration: overline; }
.fnt4 { fill:#000000; font-family:Helvetica; font-size:16pt; font-weight:bold; font-style:normal; }
.fnt5 { fill:#000000; font-family:Helvetica; font-size:10pt; font-style:normal; }
.label {fill:#000;
  text-anchor:middle;
  font-size:16pt; font-weight:bold; font-family:Sans;}
.link {fill: #0D47A1;}
.link:hover {fill: #0D47A1; text-decoration:underline;}
.link:visited {fill: #4A148C;}
]]>
</style>
<defs>
<marker id="clock" markerWidth="8.0" markerHeight="15.0" viewBox="0 0 8.0 15.0" refX="0.5" refY="7.5" orient="auto" markerUnits="userSpaceOnUse">
<g transform="translate(0.5,7.5)"><path d="M 0 -7 L 0 7 L 7 0 z" stroke="#000000" fill="#FFFFFF" stroke-width="1"/>
</g>
</marker>
</defs>
<rect x="-25" y="-56" width="100%" height="100%" fill="white"/><g transform="translate(0,0)">
<rect x="0" y="-21.0" width="140" height="83.0" stroke="#000000" fill="#CCFED2" stroke-width="1"/>
<text class="fnt1" x="70.0" y="-5.0" text-anchor="middle" dy="5.5">Data Signals</text>
<g transform="translate(0,19)">
<line x1="-20" y1="0" x2="0" y2="0" stroke="#000000" fill="none" stroke-width="1"/>
<text class="fnt2" x="10" y="0" text-anchor="normal" dy="5.5">D</text>
</g>
<g transform="translate(140,19)">
<line x1="20" y1="0" x2="0" y2="0" stroke="#000000" fill="none" stroke-width="1"/>
<text class="fnt2" x="-10" y="0" text-anchor="end" dy="5.5">Q</text>
</g>
<g transform="translate(140,41)">
<line x1="20" y1="0" x2="0" y2="0" stroke="#000000" fill="none" stroke-width="1"/>
<ellipse cx="3.0" cy="0.0" rx="3.0" ry="3.0" stroke="#000000" fill="#FFFFFF" stroke-width="1"/>
<text class="fnt3" x="-10" y="0" text-anchor="end" dy="5.5">Q</text>
</g>
</g>
<g transform="translate(0,83.0)">
<rect x="0" y="-21.0" width="140" height="61.0" stroke="#000000" fill="#FFF6B1" stroke-width="1"/>
<text class="fnt1" x="70.0" y="-5.0" text-anchor="middle" dy="5.5">Control Signals</text>
<g transform="translate(0,19)">
<line x1="-20" y1="0" x2="0" y2="0" stroke="#000000" fill="none" stroke-width="1"/>
<ellipse cx="-3.0" cy="0.0" rx="3.0" ry="3.0" stroke="#000000" fill="#FFFFFF" stroke-width="1"/>
<text class="fnt3" x="10" y="0" text-anchor="normal" dy="5.5">SET</text>
</g>
</g>
<g transform="translate(0,144.0)">
<rect x="0" y="-21.0" width="140" height="61.0" stroke="#000000" fill="#FACEAD" stroke-width="1"/>
<text class="fnt1" x="70.0" y="-5.0" text-anchor="middle" dy="5.5">Clocking</text>
<g transform="translate(0,19)">
<line x1="-20" y1="0" x2="0" y2="0" stroke="#000000" fill="none" stroke-width="1" marker-end="url(#clock)"/>
<text class="fnt2" x="10" y="0" text-anchor="normal" dy="5.5">CLK</text>
</g>
</g>
<g transform="translate(0,205.0)">
<rect x="0" y="-21.0" width="140" height="127.0" stroke="#000000" fill="#FFBBBB" stroke-width="1"/>
<text class="fnt1" x="70.0" y="-5.0" text-anchor="middle" dy="5.5">Power</text>
<g transform="translate(0,19)">
<line x1="-20" y1="0" x2="0" y2="0" stroke="#000000" fill="none" stroke-width="1"/>
<text class="fnt2" x="10" y="0" text-anchor="normal" dy="5.5">VPB</text>
</g>
<g transform="translate(0,41)">
<line x1="-20" y1="0" x2="0" y2="0" stroke="#000000" fill="none" stroke-width="1"/>
<text class="fnt2" x="10" y="0" text-anchor="normal" dy="5.5">VPWR</text>
</g>
<g transform="translate(0,63)">
<line x1="-20" y1="0" x2="0" y2="0" stroke="#000000" fill="none" stroke-width="1"/>
<text class="fnt2" x="10" y="0" text-anchor="normal" dy="5.5">VGND</text>
</g>
<g transform="translate(0,85)">
<line x1="-20" y1="0" x2="0" y2="0" stroke="#000000" fill="none" stroke-width="1"/>
<text class="fnt2" x="10" y="0" text-anchor="normal" dy="5.5">VNB</text>
</g>
</g>
<rect x="1.0" y="-20.0" width="138.0" height="330.0" stroke="#000000" fill="none" stroke-width="3"/>
<text class="fnt4" x="70.0" y="-30.0" text-anchor="middle" dy="-1.0">dfsbp</text>
<text class="fnt5" x="70.0" y="330.0" text-anchor="middle" dy="1.0">sky130_fd_sc_hd</text>
</svg>