<?xml version="1.0" encoding="UTF-8" standalone="no"?>
<!-- Created by Symbolator http://kevinpt.github.io/symbolator -->
<svg xmlns="http://www.w3.org/2000/svg"
xmlns:xlink="http://www.w3.org/1999/xlink"
xml:space="preserve"
width="211" height="295" viewBox="-25 -56 211.0 295.0" version="1.1">
<style type="text/css">
<![CDATA[
.fnt1 { fill:#000000; font-family:Times; font-size:12pt; font-weight:normal; font-style:italic; }
.fnt2 { fill:#000000; font-family:Helvetica; font-size:12pt; font-weight:normal; font-style:normal; }
.fnt3 { fill:#000000; font-family:Helvetica; font-size:16pt; font-weight:bold; font-style:normal; }
.fnt4 { fill:#000000; font-family:Helvetica; font-size:10pt; font-style:normal; }
.label {fill:#000;
  text-anchor:middle;
  font-size:16pt; font-weight:bold; font-family:Sans;}
.link {fill: #0D47A1;}
.link:hover {fill: #0D47A1; text-decoration:underline;}
.link:visited {fill: #4A148C;}
]]>
</style>
<defs>

</defs>
<rect x="-25" y="-56" width="100%" height="100%" fill="white"/><g transform="translate(0,0)">
<rect x="0" y="-21.0" width="160" height="105.0" stroke="#000000" fill="#CCFED2" stroke-width="1"/>
<text class="fnt1" x="80.0" y="-5.0" text-anchor="middle" dy="5.5">Data Signals</text>
<g transform="translate(0,19)">
<line x1="-20" y1="0" x2="0" y2="0" stroke="#000000" fill="none" stroke-width="1"/>
<text class="fnt2" x="10" y="0" text-anchor="normal" dy="5.5">A</text>
</g>
<g transform="translate(0,41)">
<line x1="-20" y1="0" x2="0" y2="0" stroke="#000000" fill="none" stroke-width="1"/>
<text class="fnt2" x="10" y="0" text-anchor="normal" dy="5.5">B</text>
</g>
<g transform="translate(0,63)">
<line x1="-20" y1="0" x2="0" y2="0" stroke="#000000" fill="none" stroke-width="1"/>
<text class="fnt2" x="10" y="0" text-anchor="normal" dy="5.5">CI</text>
</g>
<g transform="translate(160,19)">
<line x1="20" y1="0" x2="0" y2="0" stroke="#000000" fill="none" stroke-width="1"/>
<text class="fnt2" x="-10" y="0" text-anchor="end" dy="5.5">COUT</text>
</g>
<g transform="translate(160,41)">
<line x1="20" y1="0" x2="0" y2="0" stroke="#000000" fill="none" stroke-width="1"/>
<text class="fnt2" x="-10" y="0" text-anchor="end" dy="5.5">SUM</text>
</g>
</g>
<g transform="translate(0,105.0)">
<rect x="0" y="-21.0" width="160" height="127.0" stroke="#000000" fill="#FFBBBB" stroke-width="1"/>
<text class="fnt1" x="80.0" y="-5.0" text-anchor="middle" dy="5.5">Power</text>
<g transform="translate(0,19)">
<line x1="-20" y1="0" x2="0" y2="0" stroke="#000000" fill="none" stroke-width="1"/>
<text class="fnt2" x="10" y="0" text-anchor="normal" dy="5.5">VPB</text>
</g>
<g transform="translate(0,41)">
<line x1="-20" y1="0" x2="0" y2="0" stroke="#000000" fill="none" stroke-width="1"/>
<text class="fnt2" x="10" y="0" text-anchor="normal" dy="5.5">VPWR</text>
</g>
<g transform="translate(0,63)">
<line x1="-20" y1="0" x2="0" y2="0" stroke="#000000" fill="none" stroke-width="1"/>
<text class="fnt2" x="10" y="0" text-anchor="normal" dy="5.5">VGND</text>
</g>
<g transform="translate(0,85)">
<line x1="-20" y1="0" x2="0" y2="0" stroke="#000000" fill="none" stroke-width="1"/>
<text class="fnt2" x="10" y="0" text-anchor="normal" dy="5.5">VNB</text>
</g>
</g>
<rect x="1.0" y="-20.0" width="158.0" height="230.0" stroke="#000000" fill="none" stroke-width="3"/>
<text class="fnt3" x="80.0" y="-30.0" text-anchor="middle" dy="-1.0">fah</text>
<text class="fnt4" x="80.0" y="230.0" text-anchor="middle" dy="1.0">sky130_fd_sc_hd</text>
</svg>