<svg xmlns="http://www.w3.org/2000/svg" xmlns:xlink="http://www.w3.org/1999/xlink" xmlns:s="https://github.com/nturley/netlistsvg" width="509" height="255">
  <style>svg {
    stroke:#000;
    fill:none;
  }
  text {
    fill:#000;
    stroke:none;
    font-size:10px;
    font-weight: bold;
    font-family: "Courier New", monospace;
  }
  .nodelabel {
    text-anchor: middle;
  }
  .inputPortLabel {
    text-anchor: end;
  }
  .splitjoinBody {
    fill:#000;
  }</style>
  <g s:type="and" transform="translate(142,72)" s:width="30" s:height="25" id="cell_$and$./cells/fa/sky130_fd_sc_hd__fa.functional.v:60$2">
    <s:alias val="$and"/>
    <s:alias val="$logic_and"/>
    <s:alias val="$_AND_"/>
    <path d="M0,0 L0,25 L15,25 A15 12.5 0 0 0 15,0 Z" class="cell_$and$./cells/fa/sky130_fd_sc_hd__fa.functional.v:60$2"/>
    <g s:x="0" s:y="5" s:pid="A"/>
    <g s:x="0" s:y="20" s:pid="B"/>
    <g s:x="30" s:y="12.5" s:pid="Y"/>
  </g>
  <g s:type="and" transform="translate(142,12)" s:width="30" s:height="25" id="cell_$and$./cells/fa/sky130_fd_sc_hd__fa.functional.v:61$3">
    <s:alias val="$and"/>
    <s:alias val="$logic_and"/>
    <s:alias val="$_AND_"/>
    <path d="M0,0 L0,25 L15,25 A15 12.5 0 0 0 15,0 Z" class="cell_$and$./cells/fa/sky130_fd_sc_hd__fa.functional.v:61$3"/>
    <g s:x="0" s:y="5" s:pid="A"/>
    <g s:x="0" s:y="20" s:pid="B"/>
    <g s:x="30" s:y="12.5" s:pid="Y"/>
  </g>
  <g s:type="and" transform="translate(272,207)" s:width="30" s:height="25" id="cell_$and$./cells/fa/sky130_fd_sc_hd__fa.functional.v:64$5">
    <s:alias val="$and"/>
    <s:alias val="$logic_and"/>
    <s:alias val="$_AND_"/>
    <path d="M0,0 L0,25 L15,25 A15 12.5 0 0 0 15,0 Z" class="cell_$and$./cells/fa/sky130_fd_sc_hd__fa.functional.v:64$5"/>
    <g s:x="0" s:y="5" s:pid="A"/>
    <g s:x="0" s:y="20" s:pid="B"/>
    <g s:x="30" s:y="12.5" s:pid="Y"/>
  </g>
  <g s:type="and" transform="translate(337,214.5)" s:width="30" s:height="25" id="cell_$and$./cells/fa/sky130_fd_sc_hd__fa.functional.v:64$6">
    <s:alias val="$and"/>
    <s:alias val="$logic_and"/>
    <s:alias val="$_AND_"/>
    <path d="M0,0 L0,25 L15,25 A15 12.5 0 0 0 15,0 Z" class="cell_$and$./cells/fa/sky130_fd_sc_hd__fa.functional.v:64$6"/>
    <g s:x="0" s:y="5" s:pid="A"/>
    <g s:x="0" s:y="20" s:pid="B"/>
    <g s:x="30" s:y="12.5" s:pid="Y"/>
  </g>
  <g s:type="not" transform="translate(337,149.5)" s:width="30" s:height="20" id="cell_$not$./cells/fa/sky130_fd_sc_hd__fa.functional.v:0$10">
    <s:alias val="$_NOT_"/>
    <s:alias val="$not"/>
    <path d="M0,0 L0,20 L20,10 Z" class="cell_$not$./cells/fa/sky130_fd_sc_hd__fa.functional.v:0$10"/>
    <circle cx="23" cy="10" r="3" class="cell_$not$./cells/fa/sky130_fd_sc_hd__fa.functional.v:0$10"/>
    <g s:x="0" s:y="10" s:pid="A"/>
    <g s:x="25" s:y="10" s:pid="Y"/>
  </g>
  <g s:type="not" transform="translate(207,142)" s:width="30" s:height="20" id="cell_$not$./cells/fa/sky130_fd_sc_hd__fa.functional.v:0$8">
    <s:alias val="$_NOT_"/>
    <s:alias val="$not"/>
    <path d="M0,0 L0,20 L20,10 Z" class="cell_$not$./cells/fa/sky130_fd_sc_hd__fa.functional.v:0$8"/>
    <circle cx="23" cy="10" r="3" class="cell_$not$./cells/fa/sky130_fd_sc_hd__fa.functional.v:0$8"/>
    <g s:x="0" s:y="10" s:pid="A"/>
    <g s:x="25" s:y="10" s:pid="Y"/>
  </g>
  <g s:type="or" transform="translate(77,64.5)" s:width="30" s:height="25" id="cell_$or$./cells/fa/sky130_fd_sc_hd__fa.functional.v:59$1">
    <s:alias val="$or"/>
    <s:alias val="$logic_or"/>
    <s:alias val="$_OR_"/>
    <path d="M0,25 L0,25 L15,25 A15 12.5 0 0 0 15,0 L0,0" class="cell_$or$./cells/fa/sky130_fd_sc_hd__fa.functional.v:59$1"/>
    <path d="M0,0 A30 25 0 0 1 0,25" class="cell_$or$./cells/fa/sky130_fd_sc_hd__fa.functional.v:59$1"/>
    <g s:x="3" s:y="5" s:pid="A"/>
    <g s:x="3" s:y="20" s:pid="B"/>
    <g s:x="30" s:y="12.5" s:pid="Y"/>
  </g>
  <g s:type="or" transform="translate(207,19.5)" s:width="30" s:height="25" id="cell_$or$./cells/fa/sky130_fd_sc_hd__fa.functional.v:62$4">
    <s:alias val="$or"/>
    <s:alias val="$logic_or"/>
    <s:alias val="$_OR_"/>
    <path d="M0,25 L0,25 L15,25 A15 12.5 0 0 0 15,0 L0,0" class="cell_$or$./cells/fa/sky130_fd_sc_hd__fa.functional.v:62$4"/>
    <path d="M0,0 A30 25 0 0 1 0,25" class="cell_$or$./cells/fa/sky130_fd_sc_hd__fa.functional.v:62$4"/>
    <g s:x="3" s:y="5" s:pid="A"/>
    <g s:x="3" s:y="20" s:pid="B"/>
    <g s:x="30" s:y="12.5" s:pid="Y"/>
  </g>
  <g s:type="or" transform="translate(142,139.5)" s:width="30" s:height="25" id="cell_$or$./cells/fa/sky130_fd_sc_hd__fa.functional.v:65$7">
    <s:alias val="$or"/>
    <s:alias val="$logic_or"/>
    <s:alias val="$_OR_"/>
    <path d="M0,25 L0,25 L15,25 A15 12.5 0 0 0 15,0 L0,0" class="cell_$or$./cells/fa/sky130_fd_sc_hd__fa.functional.v:65$7"/>
    <path d="M0,0 A30 25 0 0 1 0,25" class="cell_$or$./cells/fa/sky130_fd_sc_hd__fa.functional.v:65$7"/>
    <g s:x="3" s:y="5" s:pid="A"/>
    <g s:x="3" s:y="20" s:pid="B"/>
    <g s:x="30" s:y="12.5" s:pid="Y"/>
  </g>
  <g s:type="or" transform="translate(272,147)" s:width="30" s:height="25" id="cell_$or$./cells/fa/sky130_fd_sc_hd__fa.functional.v:66$9">
    <s:alias val="$or"/>
    <s:alias val="$logic_or"/>
    <s:alias val="$_OR_"/>
    <path d="M0,25 L0,25 L15,25 A15 12.5 0 0 0 15,0 L0,0" class="cell_$or$./cells/fa/sky130_fd_sc_hd__fa.functional.v:66$9"/>
    <path d="M0,0 A30 25 0 0 1 0,25" class="cell_$or$./cells/fa/sky130_fd_sc_hd__fa.functional.v:66$9"/>
    <g s:x="3" s:y="5" s:pid="A"/>
    <g s:x="3" s:y="20" s:pid="B"/>
    <g s:x="30" s:y="12.5" s:pid="Y"/>
  </g>
  <g s:type="or" transform="translate(402,154.5)" s:width="30" s:height="25" id="cell_$or$./cells/fa/sky130_fd_sc_hd__fa.functional.v:67$11">
    <s:alias val="$or"/>
    <s:alias val="$logic_or"/>
    <s:alias val="$_OR_"/>
    <path d="M0,25 L0,25 L15,25 A15 12.5 0 0 0 15,0 L0,0" class="cell_$or$./cells/fa/sky130_fd_sc_hd__fa.functional.v:67$11"/>
    <path d="M0,0 A30 25 0 0 1 0,25" class="cell_$or$./cells/fa/sky130_fd_sc_hd__fa.functional.v:67$11"/>
    <g s:x="3" s:y="5" s:pid="A"/>
    <g s:x="3" s:y="20" s:pid="B"/>
    <g s:x="30" s:y="12.5" s:pid="Y"/>
  </g>
  <g s:type="outputExt" transform="translate(467,22)" s:width="30" s:height="20" id="cell_COUT">
    <text x="15" y="-4" class="nodelabel cell_COUT" s:attribute="ref">COUT</text>
    <s:alias val="$_outputExt_"/>
    <path d="M30,0 L30,20 L15,20 L0,10 L15,0 Z" class="cell_COUT"/>
    <g s:x="0" s:y="10" s:pid="A"/>
  </g>
  <g s:type="outputExt" transform="translate(467,157)" s:width="30" s:height="20" id="cell_SUM">
    <text x="15" y="-4" class="nodelabel cell_SUM" s:attribute="ref">SUM</text>
    <s:alias val="$_outputExt_"/>
    <path d="M30,0 L30,20 L15,20 L0,10 L15,0 Z" class="cell_SUM"/>
    <g s:x="0" s:y="10" s:pid="A"/>
  </g>
  <g s:type="inputExt" transform="translate(77,134.5)" s:width="30" s:height="20" id="cell_A">
    <text x="15" y="-4" class="nodelabel cell_A" s:attribute="ref">A</text>
    <s:alias val="$_inputExt_"/>
    <path d="M0,0 L0,20 L15,20 L30,10 L15,0 Z" class="cell_A"/>
    <g s:x="28" s:y="10" s:pid="Y"/>
  </g>
  <g s:type="inputExt" transform="translate(12,124.5)" s:width="30" s:height="20" id="cell_B">
    <text x="15" y="-4" class="nodelabel cell_B" s:attribute="ref">B</text>
    <s:alias val="$_inputExt_"/>
    <path d="M0,0 L0,20 L15,20 L30,10 L15,0 Z" class="cell_B"/>
    <g s:x="28" s:y="10" s:pid="Y"/>
  </g>
  <g s:type="inputExt" transform="translate(12,59.5)" s:width="30" s:height="20" id="cell_CIN">
    <text x="15" y="-4" class="nodelabel cell_CIN" s:attribute="ref">CIN</text>
    <s:alias val="$_inputExt_"/>
    <path d="M0,0 L0,20 L15,20 L30,10 L15,0 Z" class="cell_CIN"/>
    <g s:x="28" s:y="10" s:pid="Y"/>
  </g>
  <line x1="107" x2="142" y1="77" y2="77" class="net_7"/>
  <line x1="107" x2="127" y1="77" y2="77" class="net_7"/>
  <line x1="127" x2="127" y1="77" y2="159.5" class="net_7"/>
  <circle cx="127" cy="77" r="2" style="fill:#000" class="net_7"/>
  <line x1="127" x2="145" y1="159.5" y2="159.5" class="net_7"/>
  <line x1="105" x2="117" y1="144.5" y2="144.5" class="net_4"/>
  <line x1="117" x2="117" y1="144.5" y2="92" class="net_4"/>
  <circle cx="117" cy="144.5" r="2" style="fill:#000" class="net_4"/>
  <line x1="117" x2="142" y1="92" y2="92" class="net_4"/>
  <line x1="105" x2="117" y1="144.5" y2="144.5" class="net_4"/>
  <line x1="117" x2="117" y1="144.5" y2="227" class="net_4"/>
  <line x1="117" x2="272" y1="227" y2="227" class="net_4"/>
  <line x1="105" x2="145" y1="144.5" y2="144.5" class="net_4"/>
  <line x1="40" x2="52" y1="134.5" y2="134.5" class="net_5"/>
  <line x1="52" x2="52" y1="134.5" y2="17" class="net_5"/>
  <circle cx="52" cy="134.5" r="2" style="fill:#000" class="net_5"/>
  <line x1="52" x2="142" y1="17" y2="17" class="net_5"/>
  <line x1="40" x2="52" y1="134.5" y2="134.5" class="net_5"/>
  <line x1="52" x2="52" y1="134.5" y2="242" class="net_5"/>
  <line x1="52" x2="312" y1="242" y2="242" class="net_5"/>
  <line x1="312" x2="312" y1="242" y2="234.5" class="net_5"/>
  <line x1="312" x2="337" y1="234.5" y2="234.5" class="net_5"/>
  <line x1="40" x2="52" y1="134.5" y2="134.5" class="net_5"/>
  <line x1="52" x2="52" y1="134.5" y2="84.5" class="net_5"/>
  <circle cx="52" cy="84.5" r="2" style="fill:#000" class="net_5"/>
  <line x1="52" x2="80" y1="84.5" y2="84.5" class="net_5"/>
  <line x1="40" x2="62" y1="69.5" y2="69.5" class="net_6"/>
  <line x1="62" x2="62" y1="69.5" y2="32" class="net_6"/>
  <circle cx="62" cy="69.5" r="2" style="fill:#000" class="net_6"/>
  <line x1="62" x2="142" y1="32" y2="32" class="net_6"/>
  <line x1="40" x2="62" y1="69.5" y2="69.5" class="net_6"/>
  <line x1="62" x2="62" y1="69.5" y2="212" class="net_6"/>
  <line x1="62" x2="272" y1="212" y2="212" class="net_6"/>
  <line x1="40" x2="80" y1="69.5" y2="69.5" class="net_6"/>
  <line x1="302" x2="337" y1="219.5" y2="219.5" class="net_10"/>
  <line x1="302" x2="337" y1="159.5" y2="159.5" class="net_12"/>
  <line x1="172" x2="207" y1="152" y2="152" class="net_14"/>
  <line x1="172" x2="210" y1="24.5" y2="24.5" class="net_9"/>
  <line x1="172" x2="182" y1="84.5" y2="84.5" class="net_8"/>
  <line x1="182" x2="182" y1="84.5" y2="39.5" class="net_8"/>
  <line x1="182" x2="210" y1="39.5" y2="39.5" class="net_8"/>
  <line x1="232" x2="275" y1="152" y2="152" class="net_15"/>
  <line x1="237" x2="247" y1="32" y2="32" class="net_2"/>
  <line x1="247" x2="247" y1="32" y2="167" class="net_2"/>
  <circle cx="247" cy="32" r="2" style="fill:#000" class="net_2"/>
  <line x1="247" x2="275" y1="167" y2="167" class="net_2"/>
  <line x1="237" x2="467" y1="32" y2="32" class="net_2"/>
  <line x1="362" x2="405" y1="159.5" y2="159.5" class="net_13"/>
  <line x1="367" x2="377" y1="227" y2="227" class="net_11"/>
  <line x1="377" x2="377" y1="227" y2="174.5" class="net_11"/>
  <line x1="377" x2="405" y1="174.5" y2="174.5" class="net_11"/>
  <line x1="432" x2="467" y1="167" y2="167" class="net_3"/>
</svg>
