<svg xmlns="http://www.w3.org/2000/svg" xmlns:xlink="http://www.w3.org/1999/xlink" xmlns:s="https://github.com/nturley/netlistsvg" width="313" height="172">
  <style>svg {
    stroke:#000;
    fill:none;
  }
  text {
    fill:#000;
    stroke:none;
    font-size:10px;
    font-weight: bold;
    font-family: "Courier New", monospace;
  }
  .nodelabel {
    text-anchor: middle;
  }
  .inputPortLabel {
    text-anchor: end;
  }
  .splitjoinBody {
    fill:#000;
  }</style>
  <g s:type="generic" transform="translate(198,77)" s:width="30" s:height="40" id="cell_dff0">
    <text x="15" y="-4" class="nodelabel cell_dff0" s:attribute="ref">udp_dff$P</text>
    <rect width="30" height="40" s:generic="body" class="cell_dff0"/>
    <g transform="translate(0,10)" s:x="0" s:y="10" s:pid="in0" id="port_dff0~CLK">
      <text x="-3" y="-4" class="inputPortLabel cell_dff0">CLK</text>
    </g>
    <g transform="translate(0,30)" s:x="0" s:y="10" s:pid="in0" id="port_dff0~D">
      <text x="-3" y="-4" class="inputPortLabel cell_dff0">D</text>
    </g>
    <g transform="translate(30,10)" s:x="30" s:y="10" s:pid="out0" id="port_dff0~Q">
      <text x="5" y="-4" style="fill:#000; stroke:none" class="cell_dff0">Q</text>
    </g>
  </g>
  <g s:type="generic" transform="translate(90,97)" s:width="30" s:height="40" id="cell_mux_2to10">
    <text x="15" y="-4" class="nodelabel cell_mux_2to10" s:attribute="ref">udp_mux_2to1</text>
    <rect width="30" height="60" s:generic="body" class="cell_mux_2to10"/>
    <g transform="translate(0,10)" s:x="0" s:y="10" s:pid="in0" id="port_mux_2to10~A0">
      <text x="-3" y="-4" class="inputPortLabel cell_mux_2to10">A0</text>
    </g>
    <g transform="translate(0,30)" s:x="0" s:y="10" s:pid="in0" id="port_mux_2to10~A1">
      <text x="-3" y="-4" class="inputPortLabel cell_mux_2to10">A1</text>
    </g>
    <g transform="translate(0,50)" s:x="0" s:y="10" s:pid="in0" id="port_mux_2to10~S">
      <text x="-3" y="-4" class="inputPortLabel cell_mux_2to10">S</text>
    </g>
    <g transform="translate(30,10)" s:x="30" s:y="10" s:pid="out0" id="port_mux_2to10~X">
      <text x="5" y="-4" style="fill:#000; stroke:none" class="cell_mux_2to10">X</text>
    </g>
  </g>
  <g s:type="outputExt" transform="translate(271,77.5)" s:width="30" s:height="20" id="cell_Q">
    <text x="15" y="-4" class="nodelabel cell_Q" s:attribute="ref">Q</text>
    <s:alias val="$_outputExt_"/>
    <path d="M30,0 L30,20 L15,20 L0,10 L15,0 Z" class="cell_Q"/>
    <g s:x="0" s:y="10" s:pid="A"/>
  </g>
  <g s:type="inputExt" transform="translate(90,32)" s:width="30" s:height="20" id="cell_CLK">
    <text x="15" y="-4" class="nodelabel cell_CLK" s:attribute="ref">CLK</text>
    <s:alias val="$_inputExt_"/>
    <path d="M0,0 L0,20 L15,20 L30,10 L15,0 Z" class="cell_CLK"/>
    <g s:x="28" s:y="10" s:pid="Y"/>
  </g>
  <g s:type="inputExt" transform="translate(12,72.5)" s:width="30" s:height="20" id="cell_D">
    <text x="15" y="-4" class="nodelabel cell_D" s:attribute="ref">D</text>
    <s:alias val="$_inputExt_"/>
    <path d="M0,0 L0,20 L15,20 L30,10 L15,0 Z" class="cell_D"/>
    <g s:x="28" s:y="10" s:pid="Y"/>
  </g>
  <g s:type="inputExt" transform="translate(12,137.5)" s:width="30" s:height="20" id="cell_DE">
    <text x="15" y="-4" class="nodelabel cell_DE" s:attribute="ref">DE</text>
    <s:alias val="$_inputExt_"/>
    <path d="M0,0 L0,20 L15,20 L30,10 L15,0 Z" class="cell_DE"/>
    <g s:x="28" s:y="10" s:pid="Y"/>
  </g>
  <line x1="118" x2="154" y1="42" y2="42" class="net_3"/>
  <line x1="154" x2="154" y1="42" y2="87.5" class="net_3"/>
  <line x1="154" x2="198" y1="87.5" y2="87.5" class="net_3"/>
  <line x1="121" x2="198" y1="107.5" y2="107.5" class="net_6"/>
  <line x1="229" x2="246" y1="87.5" y2="87.5" class="net_2"/>
  <line x1="246" x2="246" y1="87.5" y2="12" class="net_2"/>
  <line x1="246" x2="62" y1="12" y2="12" class="net_2"/>
  <line x1="62" x2="62" y1="12" y2="107.5" class="net_2"/>
  <circle cx="246" cy="87.5" r="2" style="fill:#000" class="net_2"/>
  <line x1="62" x2="90" y1="107.5" y2="107.5" class="net_2"/>
  <line x1="229" x2="271" y1="87.5" y2="87.5" class="net_2"/>
  <line x1="40" x2="52" y1="82.5" y2="82.5" class="net_4"/>
  <line x1="52" x2="52" y1="82.5" y2="127.5" class="net_4"/>
  <line x1="52" x2="90" y1="127.5" y2="127.5" class="net_4"/>
  <line x1="40" x2="90" y1="147.5" y2="147.5" class="net_5"/>
</svg>
