<svg xmlns="http://www.w3.org/2000/svg" xmlns:xlink="http://www.w3.org/1999/xlink" xmlns:s="https://github.com/nturley/netlistsvg" width="314" height="119">
  <style>svg {
    stroke:#000;
    fill:none;
  }
  text {
    fill:#000;
    stroke:none;
    font-size:10px;
    font-weight: bold;
    font-family: "Courier New", monospace;
  }
  .nodelabel {
    text-anchor: middle;
  }
  .inputPortLabel {
    text-anchor: end;
  }
  .splitjoinBody {
    fill:#000;
  }</style>
  <g s:type="and" transform="translate(207,69.5)" s:width="30" s:height="25" id="cell_$and$./cells/nor3b/sky130_fd_sc_hd__nor3b.functional.v:54$3">
    <s:alias val="$and"/>
    <s:alias val="$logic_and"/>
    <s:alias val="$_AND_"/>
    <path d="M0,0 L0,25 L15,25 A15 12.5 0 0 0 15,0 Z" class="cell_$and$./cells/nor3b/sky130_fd_sc_hd__nor3b.functional.v:54$3"/>
    <g s:x="0" s:y="5" s:pid="A"/>
    <g s:x="0" s:y="20" s:pid="B"/>
    <g s:x="30" s:y="12.5" s:pid="Y"/>
  </g>
  <g s:type="not" transform="translate(142,79.5)" s:width="30" s:height="20" id="cell_$not$./cells/nor3b/sky130_fd_sc_hd__nor3b.functional.v:0$2">
    <s:alias val="$_NOT_"/>
    <s:alias val="$not"/>
    <path d="M0,0 L0,20 L20,10 Z" class="cell_$not$./cells/nor3b/sky130_fd_sc_hd__nor3b.functional.v:0$2"/>
    <circle cx="23" cy="10" r="3" class="cell_$not$./cells/nor3b/sky130_fd_sc_hd__nor3b.functional.v:0$2"/>
    <g s:x="0" s:y="10" s:pid="A"/>
    <g s:x="25" s:y="10" s:pid="Y"/>
  </g>
  <g s:type="or" transform="translate(77,77)" s:width="30" s:height="25" id="cell_$or$./cells/nor3b/sky130_fd_sc_hd__nor3b.functional.v:53$1">
    <s:alias val="$or"/>
    <s:alias val="$logic_or"/>
    <s:alias val="$_OR_"/>
    <path d="M0,25 L0,25 L15,25 A15 12.5 0 0 0 15,0 L0,0" class="cell_$or$./cells/nor3b/sky130_fd_sc_hd__nor3b.functional.v:53$1"/>
    <path d="M0,0 A30 25 0 0 1 0,25" class="cell_$or$./cells/nor3b/sky130_fd_sc_hd__nor3b.functional.v:53$1"/>
    <g s:x="3" s:y="5" s:pid="A"/>
    <g s:x="3" s:y="20" s:pid="B"/>
    <g s:x="30" s:y="12.5" s:pid="Y"/>
  </g>
  <g s:type="outputExt" transform="translate(272,72)" s:width="30" s:height="20" id="cell_Y">
    <text x="15" y="-4" class="nodelabel cell_Y" s:attribute="ref">Y</text>
    <s:alias val="$_outputExt_"/>
    <path d="M30,0 L30,20 L15,20 L0,10 L15,0 Z" class="cell_Y"/>
    <g s:x="0" s:y="10" s:pid="A"/>
  </g>
  <g s:type="inputExt" transform="translate(12,22)" s:width="30" s:height="20" id="cell_A">
    <text x="15" y="-4" class="nodelabel cell_A" s:attribute="ref">A</text>
    <s:alias val="$_inputExt_"/>
    <path d="M0,0 L0,20 L15,20 L30,10 L15,0 Z" class="cell_A"/>
    <g s:x="28" s:y="10" s:pid="Y"/>
  </g>
  <g s:type="inputExt" transform="translate(12,87)" s:width="30" s:height="20" id="cell_B">
    <text x="15" y="-4" class="nodelabel cell_B" s:attribute="ref">B</text>
    <s:alias val="$_inputExt_"/>
    <path d="M0,0 L0,20 L15,20 L30,10 L15,0 Z" class="cell_B"/>
    <g s:x="28" s:y="10" s:pid="Y"/>
  </g>
  <g s:type="inputExt" transform="translate(142,24.5)" s:width="30" s:height="20" id="cell_C_N">
    <text x="15" y="-4" class="nodelabel cell_C_N" s:attribute="ref">C_N</text>
    <s:alias val="$_inputExt_"/>
    <path d="M0,0 L0,20 L15,20 L30,10 L15,0 Z" class="cell_C_N"/>
    <g s:x="28" s:y="10" s:pid="Y"/>
  </g>
  <line x1="170" x2="182" y1="34.5" y2="34.5" class="net_5"/>
  <line x1="182" x2="182" y1="34.5" y2="74.5" class="net_5"/>
  <line x1="182" x2="207" y1="74.5" y2="74.5" class="net_5"/>
  <line x1="167" x2="207" y1="89.5" y2="89.5" class="net_6"/>
  <line x1="107" x2="142" y1="89.5" y2="89.5" class="net_7"/>
  <line x1="40" x2="52" y1="32" y2="32" class="net_3"/>
  <line x1="52" x2="52" y1="32" y2="82" class="net_3"/>
  <line x1="52" x2="80" y1="82" y2="82" class="net_3"/>
  <line x1="40" x2="80" y1="97" y2="97" class="net_4"/>
  <line x1="237" x2="272" y1="82" y2="82" class="net_2"/>
</svg>
