<svg xmlns="http://www.w3.org/2000/svg" xmlns:xlink="http://www.w3.org/1999/xlink" xmlns:s="https://github.com/nturley/netlistsvg" width="390" height="251">
  <style>svg {
    stroke:#000;
    fill:none;
  }
  text {
    fill:#000;
    stroke:none;
    font-size:10px;
    font-weight: bold;
    font-family: "Courier New", monospace;
  }
  .nodelabel {
    text-anchor: middle;
  }
  .inputPortLabel {
    text-anchor: end;
  }
  .splitjoinBody {
    fill:#000;
  }</style>
  <g s:type="and" transform="translate(147,12)" s:width="30" s:height="25" id="cell_$and$./cells/fahcin/sky130_fd_sc_hd__fahcin.functional.v:60$4">
    <s:alias val="$and"/>
    <s:alias val="$logic_and"/>
    <s:alias val="$_AND_"/>
    <path d="M0,0 L0,25 L15,25 A15 12.5 0 0 0 15,0 Z" class="cell_$and$./cells/fahcin/sky130_fd_sc_hd__fahcin.functional.v:60$4"/>
    <g s:x="0" s:y="5" s:pid="A"/>
    <g s:x="0" s:y="20" s:pid="B"/>
    <g s:x="30" s:y="12.5" s:pid="Y"/>
  </g>
  <g s:type="and" transform="translate(147,72)" s:width="30" s:height="25" id="cell_$and$./cells/fahcin/sky130_fd_sc_hd__fahcin.functional.v:61$5">
    <s:alias val="$and"/>
    <s:alias val="$logic_and"/>
    <s:alias val="$_AND_"/>
    <path d="M0,0 L0,25 L15,25 A15 12.5 0 0 0 15,0 Z" class="cell_$and$./cells/fahcin/sky130_fd_sc_hd__fahcin.functional.v:61$5"/>
    <g s:x="0" s:y="5" s:pid="A"/>
    <g s:x="0" s:y="20" s:pid="B"/>
    <g s:x="30" s:y="12.5" s:pid="Y"/>
  </g>
  <g s:type="and" transform="translate(213,137)" s:width="30" s:height="25" id="cell_$and$./cells/fahcin/sky130_fd_sc_hd__fahcin.functional.v:62$6">
    <s:alias val="$and"/>
    <s:alias val="$logic_and"/>
    <s:alias val="$_AND_"/>
    <path d="M0,0 L0,25 L15,25 A15 12.5 0 0 0 15,0 Z" class="cell_$and$./cells/fahcin/sky130_fd_sc_hd__fahcin.functional.v:62$6"/>
    <g s:x="0" s:y="5" s:pid="A"/>
    <g s:x="0" s:y="20" s:pid="B"/>
    <g s:x="30" s:y="12.5" s:pid="Y"/>
  </g>
  <g s:type="not" transform="translate(77,187)" s:width="30" s:height="20" id="cell_$not$./cells/fahcin/sky130_fd_sc_hd__fahcin.functional.v:0$1">
    <s:alias val="$_NOT_"/>
    <s:alias val="$not"/>
    <path d="M0,0 L0,20 L20,10 Z" class="cell_$not$./cells/fahcin/sky130_fd_sc_hd__fahcin.functional.v:0$1"/>
    <circle cx="23" cy="10" r="3" class="cell_$not$./cells/fahcin/sky130_fd_sc_hd__fahcin.functional.v:0$1"/>
    <g s:x="0" s:y="10" s:pid="A"/>
    <g s:x="25" s:y="10" s:pid="Y"/>
  </g>
  <g s:type="or" transform="translate(213,19.5)" s:width="30" s:height="25" id="cell_$or$./cells/fahcin/sky130_fd_sc_hd__fahcin.functional.v:63$7">
    <s:alias val="$or"/>
    <s:alias val="$logic_or"/>
    <s:alias val="$_OR_"/>
    <path d="M0,25 L0,25 L15,25 A15 12.5 0 0 0 15,0 L0,0" class="cell_$or$./cells/fahcin/sky130_fd_sc_hd__fahcin.functional.v:63$7"/>
    <path d="M0,0 A30 25 0 0 1 0,25" class="cell_$or$./cells/fahcin/sky130_fd_sc_hd__fahcin.functional.v:63$7"/>
    <g s:x="3" s:y="5" s:pid="A"/>
    <g s:x="3" s:y="20" s:pid="B"/>
    <g s:x="30" s:y="12.5" s:pid="Y"/>
  </g>
  <g s:type="or" transform="translate(281,27)" s:width="30" s:height="25" id="cell_$or$./cells/fahcin/sky130_fd_sc_hd__fahcin.functional.v:63$8">
    <s:alias val="$or"/>
    <s:alias val="$logic_or"/>
    <s:alias val="$_OR_"/>
    <path d="M0,25 L0,25 L15,25 A15 12.5 0 0 0 15,0 L0,0" class="cell_$or$./cells/fahcin/sky130_fd_sc_hd__fahcin.functional.v:63$8"/>
    <path d="M0,0 A30 25 0 0 1 0,25" class="cell_$or$./cells/fahcin/sky130_fd_sc_hd__fahcin.functional.v:63$8"/>
    <g s:x="3" s:y="5" s:pid="A"/>
    <g s:x="3" s:y="20" s:pid="B"/>
    <g s:x="30" s:y="12.5" s:pid="Y"/>
  </g>
  <g s:type="reduce_xor" transform="translate(212,203)" s:width="33" s:height="25" id="cell_$xor$./cells/fahcin/sky130_fd_sc_hd__fahcin.functional.v:58$2">
    <s:alias val="$xor"/>
    <s:alias val="$reduce_xor"/>
    <s:alias val="$_XOR_"/>
    <path d="M3,0 A30 25 0 0 1 3,25 A30 25 0 0 0 33,12.5 A30 25 0 0 0 3,0" class="cell_$xor$./cells/fahcin/sky130_fd_sc_hd__fahcin.functional.v:58$2"/>
    <path d="M0,0 A30 25 0 0 1 0,25" class="cell_$xor$./cells/fahcin/sky130_fd_sc_hd__fahcin.functional.v:58$2"/>
    <g s:x="3" s:y="5" s:pid="A"/>
    <g s:x="3" s:y="20" s:pid="B"/>
    <g s:x="33" s:y="12.5" s:pid="Y"/>
  </g>
  <g s:type="reduce_xor" transform="translate(280,210.5)" s:width="33" s:height="25" id="cell_$xor$./cells/fahcin/sky130_fd_sc_hd__fahcin.functional.v:58$3">
    <s:alias val="$xor"/>
    <s:alias val="$reduce_xor"/>
    <s:alias val="$_XOR_"/>
    <path d="M3,0 A30 25 0 0 1 3,25 A30 25 0 0 0 33,12.5 A30 25 0 0 0 3,0" class="cell_$xor$./cells/fahcin/sky130_fd_sc_hd__fahcin.functional.v:58$3"/>
    <path d="M0,0 A30 25 0 0 1 0,25" class="cell_$xor$./cells/fahcin/sky130_fd_sc_hd__fahcin.functional.v:58$3"/>
    <g s:x="3" s:y="5" s:pid="A"/>
    <g s:x="3" s:y="20" s:pid="B"/>
    <g s:x="33" s:y="12.5" s:pid="Y"/>
  </g>
  <g s:type="outputExt" transform="translate(348,29.5)" s:width="30" s:height="20" id="cell_COUT">
    <text x="15" y="-4" class="nodelabel cell_COUT" s:attribute="ref">COUT</text>
    <s:alias val="$_outputExt_"/>
    <path d="M30,0 L30,20 L15,20 L0,10 L15,0 Z" class="cell_COUT"/>
    <g s:x="0" s:y="10" s:pid="A"/>
  </g>
  <g s:type="outputExt" transform="translate(348,213)" s:width="30" s:height="20" id="cell_SUM">
    <text x="15" y="-4" class="nodelabel cell_SUM" s:attribute="ref">SUM</text>
    <s:alias val="$_outputExt_"/>
    <path d="M30,0 L30,20 L15,20 L0,10 L15,0 Z" class="cell_SUM"/>
    <g s:x="0" s:y="10" s:pid="A"/>
  </g>
  <g s:type="inputExt" transform="translate(77,67)" s:width="30" s:height="20" id="cell_A">
    <text x="15" y="-4" class="nodelabel cell_A" s:attribute="ref">A</text>
    <s:alias val="$_inputExt_"/>
    <path d="M0,0 L0,20 L15,20 L30,10 L15,0 Z" class="cell_A"/>
    <g s:x="28" s:y="10" s:pid="Y"/>
  </g>
  <g s:type="inputExt" transform="translate(77,132)" s:width="30" s:height="20" id="cell_B">
    <text x="15" y="-4" class="nodelabel cell_B" s:attribute="ref">B</text>
    <s:alias val="$_inputExt_"/>
    <path d="M0,0 L0,20 L15,20 L30,10 L15,0 Z" class="cell_B"/>
    <g s:x="28" s:y="10" s:pid="Y"/>
  </g>
  <g s:type="inputExt" transform="translate(12,187)" s:width="30" s:height="20" id="cell_CIN">
    <text x="15" y="-4" class="nodelabel cell_CIN" s:attribute="ref">CIN</text>
    <s:alias val="$_inputExt_"/>
    <path d="M0,0 L0,20 L15,20 L30,10 L15,0 Z" class="cell_CIN"/>
    <g s:x="28" s:y="10" s:pid="Y"/>
  </g>
  <line x1="105" x2="137" y1="77" y2="77" class="net_4"/>
  <line x1="137" x2="137" y1="77" y2="17" class="net_4"/>
  <circle cx="137" cy="77" r="2" style="fill:#000" class="net_4"/>
  <line x1="137" x2="147" y1="17" y2="17" class="net_4"/>
  <line x1="105" x2="147" y1="77" y2="77" class="net_4"/>
  <line x1="105" x2="137" y1="77" y2="77" class="net_4"/>
  <line x1="137" x2="137" y1="77" y2="208" class="net_4"/>
  <line x1="137" x2="215" y1="208" y2="208" class="net_4"/>
  <line x1="105" x2="127" y1="142" y2="142" class="net_5"/>
  <line x1="127" x2="127" y1="142" y2="32" class="net_5"/>
  <circle cx="127" cy="142" r="2" style="fill:#000" class="net_5"/>
  <line x1="127" x2="147" y1="32" y2="32" class="net_5"/>
  <line x1="105" x2="213" y1="142" y2="142" class="net_5"/>
  <line x1="105" x2="127" y1="142" y2="142" class="net_5"/>
  <line x1="127" x2="127" y1="142" y2="223" class="net_5"/>
  <line x1="127" x2="215" y1="223" y2="223" class="net_5"/>
  <line x1="102" x2="117" y1="197" y2="197" class="net_8"/>
  <line x1="117" x2="117" y1="197" y2="92" class="net_8"/>
  <circle cx="117" cy="197" r="2" style="fill:#000" class="net_8"/>
  <line x1="117" x2="147" y1="92" y2="92" class="net_8"/>
  <line x1="102" x2="187" y1="197" y2="197" class="net_8"/>
  <line x1="187" x2="187" y1="197" y2="157" class="net_8"/>
  <line x1="187" x2="213" y1="157" y2="157" class="net_8"/>
  <line x1="102" x2="117" y1="197" y2="197" class="net_8"/>
  <line x1="117" x2="117" y1="197" y2="238" class="net_8"/>
  <line x1="117" x2="255" y1="238" y2="238" class="net_8"/>
  <line x1="255" x2="255" y1="238" y2="230.5" class="net_8"/>
  <line x1="255" x2="283" y1="230.5" y2="230.5" class="net_8"/>
  <line x1="40" x2="77" y1="197" y2="197" class="net_6"/>
  <line x1="177" x2="216" y1="24.5" y2="24.5" class="net_7"/>
  <line x1="177" x2="187" y1="84.5" y2="84.5" class="net_9"/>
  <line x1="187" x2="187" y1="84.5" y2="39.5" class="net_9"/>
  <line x1="187" x2="216" y1="39.5" y2="39.5" class="net_9"/>
  <line x1="243" x2="284" y1="32" y2="32" class="net_11"/>
  <line x1="243" x2="255" y1="149.5" y2="149.5" class="net_10"/>
  <line x1="255" x2="255" y1="149.5" y2="47" class="net_10"/>
  <line x1="255" x2="284" y1="47" y2="47" class="net_10"/>
  <line x1="245" x2="283" y1="215.5" y2="215.5" class="net_12"/>
  <line x1="311" x2="348" y1="39.5" y2="39.5" class="net_2"/>
  <line x1="313" x2="348" y1="223" y2="223" class="net_3"/>
</svg>
