<svg xmlns="http://www.w3.org/2000/svg" xmlns:xlink="http://www.w3.org/1999/xlink" xmlns:s="https://github.com/nturley/netlistsvg" width="337" height="314">
  <style>svg {
    stroke:#000;
    fill:none;
  }
  text {
    fill:#000;
    stroke:none;
    font-size:10px;
    font-weight: bold;
    font-family: "Courier New", monospace;
  }
  .nodelabel {
    text-anchor: middle;
  }
  .inputPortLabel {
    text-anchor: end;
  }
  .splitjoinBody {
    fill:#000;
  }</style>
  <g s:type="not" transform="translate(107.5,282)" s:width="30" s:height="20" id="cell_$not$./cells/sdfrtn/sky130_fd_sc_hd__sdfrtn.functional.v:0$1">
    <s:alias val="$_NOT_"/>
    <s:alias val="$not"/>
    <path d="M0,0 L0,20 L20,10 Z" class="cell_$not$./cells/sdfrtn/sky130_fd_sc_hd__sdfrtn.functional.v:0$1"/>
    <circle cx="23" cy="10" r="3" class="cell_$not$./cells/sdfrtn/sky130_fd_sc_hd__sdfrtn.functional.v:0$1"/>
    <g s:x="0" s:y="10" s:pid="A"/>
    <g s:x="25" s:y="10" s:pid="Y"/>
  </g>
  <g s:type="not" transform="translate(107.5,22)" s:width="30" s:height="20" id="cell_$not$./cells/sdfrtn/sky130_fd_sc_hd__sdfrtn.functional.v:0$2">
    <s:alias val="$_NOT_"/>
    <s:alias val="$not"/>
    <path d="M0,0 L0,20 L20,10 Z" class="cell_$not$./cells/sdfrtn/sky130_fd_sc_hd__sdfrtn.functional.v:0$2"/>
    <circle cx="23" cy="10" r="3" class="cell_$not$./cells/sdfrtn/sky130_fd_sc_hd__sdfrtn.functional.v:0$2"/>
    <g s:x="0" s:y="10" s:pid="A"/>
    <g s:x="25" s:y="10" s:pid="Y"/>
  </g>
  <g s:type="generic" transform="translate(222,111.5)" s:width="30" s:height="40" id="cell_dff0">
    <text x="15" y="-4" class="nodelabel cell_dff0" s:attribute="ref">udp_dff$PR</text>
    <rect width="30" height="60" s:generic="body" class="cell_dff0"/>
    <g transform="translate(0,10)" s:x="0" s:y="10" s:pid="in0" id="port_dff0~CLK">
      <text x="-3" y="-4" class="inputPortLabel cell_dff0">CLK</text>
    </g>
    <g transform="translate(0,30)" s:x="0" s:y="10" s:pid="in0" id="port_dff0~D">
      <text x="-3" y="-4" class="inputPortLabel cell_dff0">D</text>
    </g>
    <g transform="translate(0,50)" s:x="0" s:y="10" s:pid="in0" id="port_dff0~RESET">
      <text x="-3" y="-4" class="inputPortLabel cell_dff0">RESET</text>
    </g>
    <g transform="translate(30,10)" s:x="30" s:y="10" s:pid="out0" id="port_dff0~Q">
      <text x="5" y="-4" style="fill:#000; stroke:none" class="cell_dff0">Q</text>
    </g>
  </g>
  <g s:type="generic" transform="translate(102,131.5)" s:width="30" s:height="40" id="cell_mux_2to10">
    <text x="15" y="-4" class="nodelabel cell_mux_2to10" s:attribute="ref">udp_mux_2to1</text>
    <rect width="30" height="60" s:generic="body" class="cell_mux_2to10"/>
    <g transform="translate(0,10)" s:x="0" s:y="10" s:pid="in0" id="port_mux_2to10~A0">
      <text x="-3" y="-4" class="inputPortLabel cell_mux_2to10">A0</text>
    </g>
    <g transform="translate(0,30)" s:x="0" s:y="10" s:pid="in0" id="port_mux_2to10~A1">
      <text x="-3" y="-4" class="inputPortLabel cell_mux_2to10">A1</text>
    </g>
    <g transform="translate(0,50)" s:x="0" s:y="10" s:pid="in0" id="port_mux_2to10~S">
      <text x="-3" y="-4" class="inputPortLabel cell_mux_2to10">S</text>
    </g>
    <g transform="translate(30,10)" s:x="30" s:y="10" s:pid="out0" id="port_mux_2to10~X">
      <text x="5" y="-4" style="fill:#000; stroke:none" class="cell_mux_2to10">X</text>
    </g>
  </g>
  <g s:type="outputExt" transform="translate(295,112)" s:width="30" s:height="20" id="cell_Q">
    <text x="15" y="-4" class="nodelabel cell_Q" s:attribute="ref">Q</text>
    <s:alias val="$_outputExt_"/>
    <path d="M30,0 L30,20 L15,20 L0,10 L15,0 Z" class="cell_Q"/>
    <g s:x="0" s:y="10" s:pid="A"/>
  </g>
  <g s:type="inputExt" transform="translate(12,22)" s:width="30" s:height="20" id="cell_CLK_N">
    <text x="15" y="-4" class="nodelabel cell_CLK_N" s:attribute="ref">CLK_N</text>
    <s:alias val="$_inputExt_"/>
    <path d="M0,0 L0,20 L15,20 L30,10 L15,0 Z" class="cell_CLK_N"/>
    <g s:x="28" s:y="10" s:pid="Y"/>
  </g>
  <g s:type="inputExt" transform="translate(12,87)" s:width="30" s:height="20" id="cell_D">
    <text x="15" y="-4" class="nodelabel cell_D" s:attribute="ref">D</text>
    <s:alias val="$_inputExt_"/>
    <path d="M0,0 L0,20 L15,20 L30,10 L15,0 Z" class="cell_D"/>
    <g s:x="28" s:y="10" s:pid="Y"/>
  </g>
  <g s:type="inputExt" transform="translate(12,152)" s:width="30" s:height="20" id="cell_SCD">
    <text x="15" y="-4" class="nodelabel cell_SCD" s:attribute="ref">SCD</text>
    <s:alias val="$_inputExt_"/>
    <path d="M0,0 L0,20 L15,20 L30,10 L15,0 Z" class="cell_SCD"/>
    <g s:x="28" s:y="10" s:pid="Y"/>
  </g>
  <g s:type="inputExt" transform="translate(12,217)" s:width="30" s:height="20" id="cell_SCE">
    <text x="15" y="-4" class="nodelabel cell_SCE" s:attribute="ref">SCE</text>
    <s:alias val="$_inputExt_"/>
    <path d="M0,0 L0,20 L15,20 L30,10 L15,0 Z" class="cell_SCE"/>
    <g s:x="28" s:y="10" s:pid="Y"/>
  </g>
  <g s:type="inputExt" transform="translate(12,282)" s:width="30" s:height="20" id="cell_RESET_B">
    <text x="15" y="-4" class="nodelabel cell_RESET_B" s:attribute="ref">RESET_B</text>
    <s:alias val="$_inputExt_"/>
    <path d="M0,0 L0,20 L15,20 L30,10 L15,0 Z" class="cell_RESET_B"/>
    <g s:x="28" s:y="10" s:pid="Y"/>
  </g>
  <line x1="40" x2="107.5" y1="292" y2="292" class="net_7"/>
  <line x1="40" x2="107.5" y1="32" y2="32" class="net_3"/>
  <line x1="132.5" x2="166" y1="32" y2="32" class="net_9"/>
  <line x1="166" x2="166" y1="32" y2="122" class="net_9"/>
  <line x1="166" x2="222" y1="122" y2="122" class="net_9"/>
  <line x1="133" x2="222" y1="142" y2="142" class="net_10"/>
  <line x1="132.5" x2="166" y1="292" y2="292" class="net_8"/>
  <line x1="166" x2="166" y1="292" y2="162" class="net_8"/>
  <line x1="166" x2="222" y1="162" y2="162" class="net_8"/>
  <line x1="40" x2="64" y1="97" y2="97" class="net_4"/>
  <line x1="64" x2="64" y1="97" y2="142" class="net_4"/>
  <line x1="64" x2="102" y1="142" y2="142" class="net_4"/>
  <line x1="40" x2="102" y1="162" y2="162" class="net_5"/>
  <line x1="40" x2="64" y1="227" y2="227" class="net_6"/>
  <line x1="64" x2="64" y1="227" y2="182" class="net_6"/>
  <line x1="64" x2="102" y1="182" y2="182" class="net_6"/>
  <line x1="253" x2="295" y1="122" y2="122" class="net_2"/>
</svg>
