<svg xmlns="http://www.w3.org/2000/svg" xmlns:xlink="http://www.w3.org/1999/xlink" xmlns:s="https://github.com/nturley/netlistsvg" width="357" height="119.5">
  <style>svg {
    stroke:#000;
    fill:none;
  }
  text {
    fill:#000;
    stroke:none;
    font-size:10px;
    font-weight: bold;
    font-family: "Courier New", monospace;
  }
  .nodelabel {
    text-anchor: middle;
  }
  .inputPortLabel {
    text-anchor: end;
  }
  .splitjoinBody {
    fill:#000;
  }</style>
  <g s:type="not" transform="translate(83,77.5)" s:width="30" s:height="20" id="cell_$not$./cells/dlxbn/sky130_fd_sc_hd__dlxbn.functional.v:0$1">
    <s:alias val="$_NOT_"/>
    <s:alias val="$not"/>
    <path d="M0,0 L0,20 L20,10 Z" class="cell_$not$./cells/dlxbn/sky130_fd_sc_hd__dlxbn.functional.v:0$1"/>
    <circle cx="23" cy="10" r="3" class="cell_$not$./cells/dlxbn/sky130_fd_sc_hd__dlxbn.functional.v:0$1"/>
    <g s:x="0" s:y="10" s:pid="A"/>
    <g s:x="25" s:y="10" s:pid="Y"/>
  </g>
  <g s:type="not" transform="translate(250,22.5)" s:width="30" s:height="20" id="cell_$not$./cells/dlxbn/sky130_fd_sc_hd__dlxbn.functional.v:0$2">
    <s:alias val="$_NOT_"/>
    <s:alias val="$not"/>
    <path d="M0,0 L0,20 L20,10 Z" class="cell_$not$./cells/dlxbn/sky130_fd_sc_hd__dlxbn.functional.v:0$2"/>
    <circle cx="23" cy="10" r="3" class="cell_$not$./cells/dlxbn/sky130_fd_sc_hd__dlxbn.functional.v:0$2"/>
    <g s:x="0" s:y="10" s:pid="A"/>
    <g s:x="25" s:y="10" s:pid="Y"/>
  </g>
  <g s:type="generic" transform="translate(173,22)" s:width="30" s:height="40" id="cell_dlatch0">
    <text x="15" y="-4" class="nodelabel cell_dlatch0" s:attribute="ref">udp_dlatch$P</text>
    <rect width="30" height="40" s:generic="body" class="cell_dlatch0"/>
    <g transform="translate(0,10)" s:x="0" s:y="10" s:pid="in0" id="port_dlatch0~D">
      <text x="-3" y="-4" class="inputPortLabel cell_dlatch0">D</text>
    </g>
    <g transform="translate(0,30)" s:x="0" s:y="10" s:pid="in0" id="port_dlatch0~GATE">
      <text x="-3" y="-4" class="inputPortLabel cell_dlatch0">GATE</text>
    </g>
    <g transform="translate(30,10)" s:x="30" s:y="10" s:pid="out0" id="port_dlatch0~Q">
      <text x="5" y="-4" style="fill:#000; stroke:none" class="cell_dlatch0">Q</text>
    </g>
  </g>
  <g s:type="outputExt" transform="translate(315,87.5)" s:width="30" s:height="20" id="cell_Q">
    <text x="15" y="-4" class="nodelabel cell_Q" s:attribute="ref">Q</text>
    <s:alias val="$_outputExt_"/>
    <path d="M30,0 L30,20 L15,20 L0,10 L15,0 Z" class="cell_Q"/>
    <g s:x="0" s:y="10" s:pid="A"/>
  </g>
  <g s:type="outputExt" transform="translate(315,22.5)" s:width="30" s:height="20" id="cell_Q_N">
    <text x="15" y="-4" class="nodelabel cell_Q_N" s:attribute="ref">Q_N</text>
    <s:alias val="$_outputExt_"/>
    <path d="M30,0 L30,20 L15,20 L0,10 L15,0 Z" class="cell_Q_N"/>
    <g s:x="0" s:y="10" s:pid="A"/>
  </g>
  <g s:type="inputExt" transform="translate(83,22.5)" s:width="30" s:height="20" id="cell_D">
    <text x="15" y="-4" class="nodelabel cell_D" s:attribute="ref">D</text>
    <s:alias val="$_inputExt_"/>
    <path d="M0,0 L0,20 L15,20 L30,10 L15,0 Z" class="cell_D"/>
    <g s:x="28" s:y="10" s:pid="Y"/>
  </g>
  <g s:type="inputExt" transform="translate(12,77.5)" s:width="30" s:height="20" id="cell_GATE_N">
    <text x="15" y="-4" class="nodelabel cell_GATE_N" s:attribute="ref">GATE_N</text>
    <s:alias val="$_inputExt_"/>
    <path d="M0,0 L0,20 L15,20 L30,10 L15,0 Z" class="cell_GATE_N"/>
    <g s:x="28" s:y="10" s:pid="Y"/>
  </g>
  <line x1="40" x2="83" y1="87.5" y2="87.5" class="net_5"/>
  <line x1="204" x2="250" y1="32.5" y2="32.5" class="net_2"/>
  <line x1="204" x2="225" y1="32.5" y2="32.5" class="net_2"/>
  <line x1="225" x2="225" y1="32.5" y2="97.5" class="net_2"/>
  <circle cx="225" cy="32.5" r="2" style="fill:#000" class="net_2"/>
  <line x1="225" x2="315" y1="97.5" y2="97.5" class="net_2"/>
  <line x1="111" x2="173" y1="32.5" y2="32.5" class="net_4"/>
  <line x1="108" x2="123" y1="87.5" y2="87.5" class="net_6"/>
  <line x1="123" x2="123" y1="87.5" y2="52.5" class="net_6"/>
  <line x1="123" x2="173" y1="52.5" y2="52.5" class="net_6"/>
  <line x1="275" x2="315" y1="32.5" y2="32.5" class="net_3"/>
</svg>
