<svg xmlns="http://www.w3.org/2000/svg" xmlns:xlink="http://www.w3.org/1999/xlink" xmlns:s="https://github.com/nturley/netlistsvg" width="351" height="120.5">
  <style>svg {
    stroke:#000;
    fill:none;
  }
  text {
    fill:#000;
    stroke:none;
    font-size:10px;
    font-weight: bold;
    font-family: "Courier New", monospace;
  }
  .nodelabel {
    text-anchor: middle;
  }
  .inputPortLabel {
    text-anchor: end;
  }
  .splitjoinBody {
    fill:#000;
  }</style>
  <g s:type="and" transform="translate(244,27.5)" s:width="30" s:height="25" id="cell_$and$./cells/dlclkp/sky130_fd_sc_hd__dlclkp.functional.v:54$2">
    <s:alias val="$and"/>
    <s:alias val="$logic_and"/>
    <s:alias val="$_AND_"/>
    <path d="M0,0 L0,25 L15,25 A15 12.5 0 0 0 15,0 Z" class="cell_$and$./cells/dlclkp/sky130_fd_sc_hd__dlclkp.functional.v:54$2"/>
    <g s:x="0" s:y="5" s:pid="A"/>
    <g s:x="0" s:y="20" s:pid="B"/>
    <g s:x="30" s:y="12.5" s:pid="Y"/>
  </g>
  <g s:type="not" transform="translate(77,77.5)" s:width="30" s:height="20" id="cell_$not$./cells/dlclkp/sky130_fd_sc_hd__dlclkp.functional.v:0$1">
    <s:alias val="$_NOT_"/>
    <s:alias val="$not"/>
    <path d="M0,0 L0,20 L20,10 Z" class="cell_$not$./cells/dlclkp/sky130_fd_sc_hd__dlclkp.functional.v:0$1"/>
    <circle cx="23" cy="10" r="3" class="cell_$not$./cells/dlclkp/sky130_fd_sc_hd__dlclkp.functional.v:0$1"/>
    <g s:x="0" s:y="10" s:pid="A"/>
    <g s:x="25" s:y="10" s:pid="Y"/>
  </g>
  <g s:type="generic" transform="translate(167,22)" s:width="30" s:height="40" id="cell_dlatch0">
    <text x="15" y="-4" class="nodelabel cell_dlatch0" s:attribute="ref">udp_dlatch$P</text>
    <rect width="30" height="40" s:generic="body" class="cell_dlatch0"/>
    <g transform="translate(0,10)" s:x="0" s:y="10" s:pid="in0" id="port_dlatch0~D">
      <text x="-3" y="-4" class="inputPortLabel cell_dlatch0">D</text>
    </g>
    <g transform="translate(0,30)" s:x="0" s:y="10" s:pid="in0" id="port_dlatch0~GATE">
      <text x="-3" y="-4" class="inputPortLabel cell_dlatch0">GATE</text>
    </g>
    <g transform="translate(30,10)" s:x="30" s:y="10" s:pid="out0" id="port_dlatch0~Q">
      <text x="5" y="-4" style="fill:#000; stroke:none" class="cell_dlatch0">Q</text>
    </g>
  </g>
  <g s:type="outputExt" transform="translate(309,30)" s:width="30" s:height="20" id="cell_GCLK">
    <text x="15" y="-4" class="nodelabel cell_GCLK" s:attribute="ref">GCLK</text>
    <s:alias val="$_outputExt_"/>
    <path d="M30,0 L30,20 L15,20 L0,10 L15,0 Z" class="cell_GCLK"/>
    <g s:x="0" s:y="10" s:pid="A"/>
  </g>
  <g s:type="inputExt" transform="translate(77,22.5)" s:width="30" s:height="20" id="cell_GATE">
    <text x="15" y="-4" class="nodelabel cell_GATE" s:attribute="ref">GATE</text>
    <s:alias val="$_inputExt_"/>
    <path d="M0,0 L0,20 L15,20 L30,10 L15,0 Z" class="cell_GATE"/>
    <g s:x="28" s:y="10" s:pid="Y"/>
  </g>
  <g s:type="inputExt" transform="translate(12,77.5)" s:width="30" s:height="20" id="cell_CLK">
    <text x="15" y="-4" class="nodelabel cell_CLK" s:attribute="ref">CLK</text>
    <s:alias val="$_inputExt_"/>
    <path d="M0,0 L0,20 L15,20 L30,10 L15,0 Z" class="cell_CLK"/>
    <g s:x="28" s:y="10" s:pid="Y"/>
  </g>
  <line x1="198" x2="244" y1="32.5" y2="32.5" class="net_5"/>
  <line x1="40" x2="52" y1="87.5" y2="87.5" class="net_4"/>
  <line x1="52" x2="52" y1="87.5" y2="107.5" class="net_4"/>
  <line x1="52" x2="219" y1="107.5" y2="107.5" class="net_4"/>
  <line x1="219" x2="219" y1="107.5" y2="47.5" class="net_4"/>
  <circle cx="52" cy="87.5" r="2" style="fill:#000" class="net_4"/>
  <line x1="219" x2="244" y1="47.5" y2="47.5" class="net_4"/>
  <line x1="40" x2="77" y1="87.5" y2="87.5" class="net_4"/>
  <line x1="105" x2="167" y1="32.5" y2="32.5" class="net_3"/>
  <line x1="102" x2="117" y1="87.5" y2="87.5" class="net_6"/>
  <line x1="117" x2="117" y1="87.5" y2="52.5" class="net_6"/>
  <line x1="117" x2="167" y1="52.5" y2="52.5" class="net_6"/>
  <line x1="274" x2="309" y1="40" y2="40" class="net_2"/>
</svg>
