<svg xmlns="http://www.w3.org/2000/svg" xmlns:xlink="http://www.w3.org/1999/xlink" xmlns:s="https://github.com/nturley/netlistsvg" width="369" height="174">
  <style>svg {
    stroke:#000;
    fill:none;
  }
  text {
    fill:#000;
    stroke:none;
    font-size:10px;
    font-weight: bold;
    font-family: "Courier New", monospace;
  }
  .nodelabel {
    text-anchor: middle;
  }
  .inputPortLabel {
    text-anchor: end;
  }
  .splitjoinBody {
    fill:#000;
  }</style>
  <g s:type="not" transform="translate(89,142)" s:width="30" s:height="20" id="cell_$not$./cells/dlrbp/sky130_fd_sc_hd__dlrbp.functional.v:0$1">
    <s:alias val="$_NOT_"/>
    <s:alias val="$not"/>
    <path d="M0,0 L0,20 L20,10 Z" class="cell_$not$./cells/dlrbp/sky130_fd_sc_hd__dlrbp.functional.v:0$1"/>
    <circle cx="23" cy="10" r="3" class="cell_$not$./cells/dlrbp/sky130_fd_sc_hd__dlrbp.functional.v:0$1"/>
    <g s:x="0" s:y="10" s:pid="A"/>
    <g s:x="25" s:y="10" s:pid="Y"/>
  </g>
  <g s:type="not" transform="translate(262,67)" s:width="30" s:height="20" id="cell_$not$./cells/dlrbp/sky130_fd_sc_hd__dlrbp.functional.v:0$2">
    <s:alias val="$_NOT_"/>
    <s:alias val="$not"/>
    <path d="M0,0 L0,20 L20,10 Z" class="cell_$not$./cells/dlrbp/sky130_fd_sc_hd__dlrbp.functional.v:0$2"/>
    <circle cx="23" cy="10" r="3" class="cell_$not$./cells/dlrbp/sky130_fd_sc_hd__dlrbp.functional.v:0$2"/>
    <g s:x="0" s:y="10" s:pid="A"/>
    <g s:x="25" s:y="10" s:pid="Y"/>
  </g>
  <g s:type="generic" transform="translate(185,66.5)" s:width="30" s:height="40" id="cell_dlatch0">
    <text x="15" y="-4" class="nodelabel cell_dlatch0" s:attribute="ref">udp_dlatch$PR</text>
    <rect width="30" height="60" s:generic="body" class="cell_dlatch0"/>
    <g transform="translate(0,10)" s:x="0" s:y="10" s:pid="in0" id="port_dlatch0~D">
      <text x="-3" y="-4" class="inputPortLabel cell_dlatch0">D</text>
    </g>
    <g transform="translate(0,30)" s:x="0" s:y="10" s:pid="in0" id="port_dlatch0~GATE">
      <text x="-3" y="-4" class="inputPortLabel cell_dlatch0">GATE</text>
    </g>
    <g transform="translate(0,50)" s:x="0" s:y="10" s:pid="in0" id="port_dlatch0~RESET">
      <text x="-3" y="-4" class="inputPortLabel cell_dlatch0">RESET</text>
    </g>
    <g transform="translate(30,10)" s:x="30" s:y="10" s:pid="out0" id="port_dlatch0~Q">
      <text x="5" y="-4" style="fill:#000; stroke:none" class="cell_dlatch0">Q</text>
    </g>
  </g>
  <g s:type="outputExt" transform="translate(327,132)" s:width="30" s:height="20" id="cell_Q">
    <text x="15" y="-4" class="nodelabel cell_Q" s:attribute="ref">Q</text>
    <s:alias val="$_outputExt_"/>
    <path d="M30,0 L30,20 L15,20 L0,10 L15,0 Z" class="cell_Q"/>
    <g s:x="0" s:y="10" s:pid="A"/>
  </g>
  <g s:type="outputExt" transform="translate(327,67)" s:width="30" s:height="20" id="cell_Q_N">
    <text x="15" y="-4" class="nodelabel cell_Q_N" s:attribute="ref">Q_N</text>
    <s:alias val="$_outputExt_"/>
    <path d="M30,0 L30,20 L15,20 L0,10 L15,0 Z" class="cell_Q_N"/>
    <g s:x="0" s:y="10" s:pid="A"/>
  </g>
  <g s:type="inputExt" transform="translate(12,142)" s:width="30" s:height="20" id="cell_RESET_B">
    <text x="15" y="-4" class="nodelabel cell_RESET_B" s:attribute="ref">RESET_B</text>
    <s:alias val="$_inputExt_"/>
    <path d="M0,0 L0,20 L15,20 L30,10 L15,0 Z" class="cell_RESET_B"/>
    <g s:x="28" s:y="10" s:pid="Y"/>
  </g>
  <g s:type="inputExt" transform="translate(89,22)" s:width="30" s:height="20" id="cell_D">
    <text x="15" y="-4" class="nodelabel cell_D" s:attribute="ref">D</text>
    <s:alias val="$_inputExt_"/>
    <path d="M0,0 L0,20 L15,20 L30,10 L15,0 Z" class="cell_D"/>
    <g s:x="28" s:y="10" s:pid="Y"/>
  </g>
  <g s:type="inputExt" transform="translate(89,87)" s:width="30" s:height="20" id="cell_GATE">
    <text x="15" y="-4" class="nodelabel cell_GATE" s:attribute="ref">GATE</text>
    <s:alias val="$_inputExt_"/>
    <path d="M0,0 L0,20 L15,20 L30,10 L15,0 Z" class="cell_GATE"/>
    <g s:x="28" s:y="10" s:pid="Y"/>
  </g>
  <line x1="40" x2="89" y1="152" y2="152" class="net_4"/>
  <line x1="216" x2="262" y1="77" y2="77" class="net_2"/>
  <line x1="216" x2="237" y1="77" y2="77" class="net_2"/>
  <line x1="237" x2="237" y1="77" y2="142" class="net_2"/>
  <circle cx="237" cy="77" r="2" style="fill:#000" class="net_2"/>
  <line x1="237" x2="327" y1="142" y2="142" class="net_2"/>
  <line x1="117" x2="129" y1="32" y2="32" class="net_5"/>
  <line x1="129" x2="129" y1="32" y2="77" class="net_5"/>
  <line x1="129" x2="185" y1="77" y2="77" class="net_5"/>
  <line x1="117" x2="185" y1="97" y2="97" class="net_6"/>
  <line x1="114" x2="129" y1="152" y2="152" class="net_7"/>
  <line x1="129" x2="129" y1="152" y2="117" class="net_7"/>
  <line x1="129" x2="185" y1="117" y2="117" class="net_7"/>
  <line x1="287" x2="327" y1="77" y2="77" class="net_3"/>
</svg>
