<svg xmlns="http://www.w3.org/2000/svg" xmlns:xlink="http://www.w3.org/1999/xlink" xmlns:s="https://github.com/nturley/netlistsvg" width="365" height="239">
  <style>svg {
    stroke:#000;
    fill:none;
  }
  text {
    fill:#000;
    stroke:none;
    font-size:10px;
    font-weight: bold;
    font-family: "Courier New", monospace;
  }
  .nodelabel {
    text-anchor: middle;
  }
  .inputPortLabel {
    text-anchor: end;
  }
  .splitjoinBody {
    fill:#000;
  }</style>
  <g s:type="not" transform="translate(89,142)" s:width="30" s:height="20" id="cell_$not$./cells/dfbbn/sky130_fd_sc_hd__dfbbn.functional.v:0$1">
    <s:alias val="$_NOT_"/>
    <s:alias val="$not"/>
    <path d="M0,0 L0,20 L20,10 Z" class="cell_$not$./cells/dfbbn/sky130_fd_sc_hd__dfbbn.functional.v:0$1"/>
    <circle cx="23" cy="10" r="3" class="cell_$not$./cells/dfbbn/sky130_fd_sc_hd__dfbbn.functional.v:0$1"/>
    <g s:x="0" s:y="10" s:pid="A"/>
    <g s:x="25" s:y="10" s:pid="Y"/>
  </g>
  <g s:type="not" transform="translate(89,207)" s:width="30" s:height="20" id="cell_$not$./cells/dfbbn/sky130_fd_sc_hd__dfbbn.functional.v:0$2">
    <s:alias val="$_NOT_"/>
    <s:alias val="$not"/>
    <path d="M0,0 L0,20 L20,10 Z" class="cell_$not$./cells/dfbbn/sky130_fd_sc_hd__dfbbn.functional.v:0$2"/>
    <circle cx="23" cy="10" r="3" class="cell_$not$./cells/dfbbn/sky130_fd_sc_hd__dfbbn.functional.v:0$2"/>
    <g s:x="0" s:y="10" s:pid="A"/>
    <g s:x="25" s:y="10" s:pid="Y"/>
  </g>
  <g s:type="not" transform="translate(89,22)" s:width="30" s:height="20" id="cell_$not$./cells/dfbbn/sky130_fd_sc_hd__dfbbn.functional.v:0$3">
    <s:alias val="$_NOT_"/>
    <s:alias val="$not"/>
    <path d="M0,0 L0,20 L20,10 Z" class="cell_$not$./cells/dfbbn/sky130_fd_sc_hd__dfbbn.functional.v:0$3"/>
    <circle cx="23" cy="10" r="3" class="cell_$not$./cells/dfbbn/sky130_fd_sc_hd__dfbbn.functional.v:0$3"/>
    <g s:x="0" s:y="10" s:pid="A"/>
    <g s:x="25" s:y="10" s:pid="Y"/>
  </g>
  <g s:type="not" transform="translate(258,67)" s:width="30" s:height="20" id="cell_$not$./cells/dfbbn/sky130_fd_sc_hd__dfbbn.functional.v:0$4">
    <s:alias val="$_NOT_"/>
    <s:alias val="$not"/>
    <path d="M0,0 L0,20 L20,10 Z" class="cell_$not$./cells/dfbbn/sky130_fd_sc_hd__dfbbn.functional.v:0$4"/>
    <circle cx="23" cy="10" r="3" class="cell_$not$./cells/dfbbn/sky130_fd_sc_hd__dfbbn.functional.v:0$4"/>
    <g s:x="0" s:y="10" s:pid="A"/>
    <g s:x="25" s:y="10" s:pid="Y"/>
  </g>
  <g s:type="generic" transform="translate(185,66.5)" s:width="30" s:height="40" id="cell_dff0">
    <text x="15" y="-4" class="nodelabel cell_dff0" s:attribute="ref">udp_dff$NSR</text>
    <rect width="30" height="80" s:generic="body" class="cell_dff0"/>
    <g transform="translate(0,10)" s:x="0" s:y="10" s:pid="in0" id="port_dff0~CLK_N">
      <text x="-3" y="-4" class="inputPortLabel cell_dff0">CLK_N</text>
    </g>
    <g transform="translate(0,30)" s:x="0" s:y="10" s:pid="in0" id="port_dff0~D">
      <text x="-3" y="-4" class="inputPortLabel cell_dff0">D</text>
    </g>
    <g transform="translate(0,50)" s:x="0" s:y="10" s:pid="in0" id="port_dff0~RESET">
      <text x="-3" y="-4" class="inputPortLabel cell_dff0">RESET</text>
    </g>
    <g transform="translate(0,70)" s:x="0" s:y="10" s:pid="in0" id="port_dff0~SET">
      <text x="-3" y="-4" class="inputPortLabel cell_dff0">SET</text>
    </g>
    <g transform="translate(30,10)" s:x="30" s:y="10" s:pid="out0" id="port_dff0~Q">
      <text x="5" y="-4" style="fill:#000; stroke:none" class="cell_dff0">Q</text>
    </g>
  </g>
  <g s:type="outputExt" transform="translate(323,132)" s:width="30" s:height="20" id="cell_Q">
    <text x="15" y="-4" class="nodelabel cell_Q" s:attribute="ref">Q</text>
    <s:alias val="$_outputExt_"/>
    <path d="M30,0 L30,20 L15,20 L0,10 L15,0 Z" class="cell_Q"/>
    <g s:x="0" s:y="10" s:pid="A"/>
  </g>
  <g s:type="outputExt" transform="translate(323,67)" s:width="30" s:height="20" id="cell_Q_N">
    <text x="15" y="-4" class="nodelabel cell_Q_N" s:attribute="ref">Q_N</text>
    <s:alias val="$_outputExt_"/>
    <path d="M30,0 L30,20 L15,20 L0,10 L15,0 Z" class="cell_Q_N"/>
    <g s:x="0" s:y="10" s:pid="A"/>
  </g>
  <g s:type="inputExt" transform="translate(89,87)" s:width="30" s:height="20" id="cell_D">
    <text x="15" y="-4" class="nodelabel cell_D" s:attribute="ref">D</text>
    <s:alias val="$_inputExt_"/>
    <path d="M0,0 L0,20 L15,20 L30,10 L15,0 Z" class="cell_D"/>
    <g s:x="28" s:y="10" s:pid="Y"/>
  </g>
  <g s:type="inputExt" transform="translate(12,22)" s:width="30" s:height="20" id="cell_CLK_N">
    <text x="15" y="-4" class="nodelabel cell_CLK_N" s:attribute="ref">CLK_N</text>
    <s:alias val="$_inputExt_"/>
    <path d="M0,0 L0,20 L15,20 L30,10 L15,0 Z" class="cell_CLK_N"/>
    <g s:x="28" s:y="10" s:pid="Y"/>
  </g>
  <g s:type="inputExt" transform="translate(12,207)" s:width="30" s:height="20" id="cell_SET_B">
    <text x="15" y="-4" class="nodelabel cell_SET_B" s:attribute="ref">SET_B</text>
    <s:alias val="$_inputExt_"/>
    <path d="M0,0 L0,20 L15,20 L30,10 L15,0 Z" class="cell_SET_B"/>
    <g s:x="28" s:y="10" s:pid="Y"/>
  </g>
  <g s:type="inputExt" transform="translate(12,142)" s:width="30" s:height="20" id="cell_RESET_B">
    <text x="15" y="-4" class="nodelabel cell_RESET_B" s:attribute="ref">RESET_B</text>
    <s:alias val="$_inputExt_"/>
    <path d="M0,0 L0,20 L15,20 L30,10 L15,0 Z" class="cell_RESET_B"/>
    <g s:x="28" s:y="10" s:pid="Y"/>
  </g>
  <line x1="40" x2="89" y1="152" y2="152" class="net_7"/>
  <line x1="40" x2="89" y1="217" y2="217" class="net_6"/>
  <line x1="40" x2="89" y1="32" y2="32" class="net_5"/>
  <line x1="216" x2="258" y1="77" y2="77" class="net_2"/>
  <line x1="216" x2="233" y1="77" y2="77" class="net_2"/>
  <line x1="233" x2="233" y1="77" y2="142" class="net_2"/>
  <circle cx="233" cy="77" r="2" style="fill:#000" class="net_2"/>
  <line x1="233" x2="323" y1="142" y2="142" class="net_2"/>
  <line x1="114" x2="129" y1="32" y2="32" class="net_10"/>
  <line x1="129" x2="129" y1="32" y2="77" class="net_10"/>
  <line x1="129" x2="185" y1="77" y2="77" class="net_10"/>
  <line x1="117" x2="185" y1="97" y2="97" class="net_4"/>
  <line x1="114" x2="129" y1="152" y2="152" class="net_8"/>
  <line x1="129" x2="129" y1="152" y2="117" class="net_8"/>
  <line x1="129" x2="185" y1="117" y2="117" class="net_8"/>
  <line x1="114" x2="139" y1="217" y2="217" class="net_9"/>
  <line x1="139" x2="139" y1="217" y2="137" class="net_9"/>
  <line x1="139" x2="185" y1="137" y2="137" class="net_9"/>
  <line x1="283" x2="323" y1="77" y2="77" class="net_3"/>
</svg>
